<svg xmlns="http://www.w3.org/2000/svg" width="155" height="123" viewBox="0 0 155 123">
  <g fill="none" fill-rule="evenodd" transform="translate(6 2)">
    <path fill="#FFF" stroke="#FFF" stroke-linejoin="round" stroke-width="6" d="M22.6486817,64.4267762 C22.454262,59.0760064 24.7047924,53.6264152 28.9448999,49.8132882 C33.0203114,45.8130018 38.8178786,44.1169779 44.1746649,45.267393 C48.8211197,34.2192218 59.2415894,27 71,27 C82.8344586,27 93.2671391,34.2244658 97.8491746,45.2842571 C103.229571,44.1604648 109.005617,45.8510776 113.059216,49.8175141 C117.285763,53.6606048 119.529478,59.0934719 119.345532,64.4255495 C128.30325,66.3233259 135,73.9562684 135,83 C135,93.6053433 126.607269,102 116,102 L26,102 C15.3927312,102 7,93.6053433 7,83 C7,73.9582158 13.6938661,66.3266131 22.6486817,64.4267762 Z"/>
    <g stroke="#DADADA" stroke-width="4" transform="translate(19)">
      <circle cx="8" cy="8" r="8"/>
      <path d="M8 51L8 21M10 8L6 8"/>
    </g>
    <path fill="#FFF" stroke="#FFF" stroke-linejoin="round" stroke-width="6" d="M12.6486817,49.4267762 C12.454262,44.0760064 14.7047924,38.6264152 18.9448999,34.8132882 C23.0203114,30.8130018 28.8178786,29.1169779 34.1746649,30.267393 C38.8211197,19.2192218 49.2415894,12 61,12 C72.8344586,12 83.2671391,19.2244658 87.8491746,30.2842571 C93.2295713,29.1604648 99.0056174,30.8510776 103.059216,34.8175141 C107.285763,38.6606048 109.529478,44.0934719 109.345532,49.4255495 C118.30325,51.3233259 125,58.9562684 125,68 C125,78.6053433 116.607269,87 106,87 L16,87 C5.3927312,87 -3,78.6053433 -3,68 C-3,58.9582158 3.69386606,51.3266131 12.6486817,49.4267762 Z"/>
    <path fill="#FFF" stroke="#DADADA" stroke-linejoin="round" stroke-width="4" d="M28,84 L16,84 C7.04790458,84 8.73852961e-16,76.9468078 0,68 C-1.0923162e-15,59.5457007 7.04790458,52.4925085 16,52 C14.8228604,46.9100987 16.5369773,40.98079 21,37 C24.9463777,33.0905492 30.9693105,31.7604598 36,34 C39.5797983,22.5776235 49.6175981,15 61,15 C72.4611115,15 82.4989114,22.5776235 86,34 C91.0993178,31.7985672 97.092022,33.1462094 101,37 C105.454836,41.0234809 107.161498,46.928181 106,52 C114.952095,52.4925085 122,59.5457007 122,68 C122,76.9468078 114.952095,84 106,84 L94,84 L28,84 Z"/>
    <path stroke="#DADADA" stroke-linejoin="round" stroke-width="4" d="M43,41 C43,31.0588745 51.0588745,23 61,23"/>
    <g transform="translate(29 48)">
      <rect width="22.69" height="24.17" fill="#DADADA" fill-rule="nonzero"/>
      <g fill="#646464" transform="translate(5 6)">
        <rect width="3" height="3"/>
        <rect width="3" height="3" y="12"/>
      </g>
      <path stroke="#646464" stroke-width="4" d="M23 17L23 23C23 24.2836556 22.2644678 25 21 25L2 25C.735532197 25 0 24.2836556 0 23L0 17M23 12C23 13.2724627 22.2644678 14 21 14L2 14C.735532197 14 0 13.2724627 0 12L0 3C0 1.72753728.735532197 1 2 1L21 1C22.2644678 1 23 1.72753728 23 3L23 12z"/>
    </g>
    <g transform="translate(64 48)">
      <rect width="22.69" height="24.17" fill="#DADADA" fill-rule="nonzero"/>
      <g fill="#646464" transform="translate(5 6)">
        <rect width="3" height="3"/>
        <rect width="3" height="3" y="12"/>
      </g>
      <path stroke="#646464" stroke-width="4" d="M23 17L23 23C23 24.2836556 22.2644678 25 21 25L2 25C.735532197 25 0 24.2836556 0 23L0 17M23 12C23 13.2724627 22.2644678 14 21 14L2 14C.735532197 14 0 13.2724627 0 12L0 3C0 1.72753728.735532197 1 2 1L21 1C22.2644678 1 23 1.72753728 23 3L23 12z"/>
    </g>
    <g stroke="#DADADA" stroke-width="4" transform="translate(124 17)">
      <circle cx="10" cy="8" r="8"/>
      <path d="M2.27373675e-13 27L7 27C8.50761583 27 10 25.6568542 10 24L10 21M8 8L12 8"/>
    </g>
    <path fill="#FFF" stroke="#FFF" stroke-width="6" d="M71.0000214,61.4731099 C71.0145369,52.3727736 78.3962667,45 87.5,45 C89.7830509,45 92.0006464,45.4660776 94.0413749,46.3481107 C97.9743537,41.7501931 103.754247,39 110,39 C119.251599,39 127.271843,45.0278679 130.006986,53.6007647 C139.267857,55.8627609 146,64.2145413 146,74 C146,85.5979797 136.59798,95 125,95 L75,95 C65.6111593,95 58,87.3888407 58,78 C58,70.0159995 63.5179615,63.2759246 71.0000214,61.4731099 Z"/>
    <path fill="#FFF" stroke="#646464" stroke-width="4" d="M74.234893,64.0205517 C74.080679,63.2039742 74,62.3614089 74,61.5 C74,54.0441559 80.0441559,48 87.5,48 C90.2305998,48 92.7718513,48.8106961 94.8961945,50.2045284 C98.1055964,45.2660315 103.671387,42 110,42 C118.632365,42 125.845457,48.0766314 127.595064,56.1856824 C136.30658,57.4435743 143,64.9401212 143,74 C143,83.9411255 134.941125,92 125,92 L75,92 C67.2680135,92 61,85.7319865 61,78 C61,70.5247215 66.8587168,64.4178196 74.234893,64.0205517 Z"/>
    <rect width="12" height="4" x="97" y="90" fill="#FFF"/>
    <rect width="3" height="3" x="97" y="72" fill="#ED1C24"/>
    <path stroke="#646464" stroke-width="4" d="M115,78 C115,79.2724627 114.264468,80 113,80 L94,80 C92.7355322,80 92,79.2724627 92,78 L92,69 C92,67.7275373 92.7355322,67 94,67 L113,67 C114.264468,67 115,67.7275373 115,69 L115,78 Z"/>
    <path stroke="#646464" stroke-width="4" d="M122.562012,91.4379883 L100.437988,91.4379883 C98.9303724,91.4379883 97.4379883,92.781134 97.4379883,94.4379883 L97.4379883,105.437988" transform="rotate(-90 110 98.438)"/>
    <path stroke="#DADADA" stroke-width="4" d="M41.5,77 L41.5,82"/>
    <g transform="rotate(-180 69.5 60)">
      <rect width="16.129" height="16.129" y=".887" fill="#ED1C24" fill-rule="nonzero"/>
      <rect width="16" height="16" y="1" stroke="#646464" stroke-width="4"/>
      <path stroke="#FFF" stroke-width="4" d="M6,9 L10,9"/>
    </g>
  </g>
</svg>
